<svg width="32" height="32" viewBox="0 0 32 32" fill="none" xmlns="http://www.w3.org/2000/svg">
  <!-- Shopping bag icon -->
  <path d="M9 6C9 4.89543 9.89543 4 11 4H21C22.1046 4 23 4.89543 23 6V7H9V6Z" fill="currentColor"/>
  <path d="M8 7H24C24.5304 7 25.0391 7.21071 25.4142 7.58579C25.7893 7.96086 26 8.46957 26 9V22C26 23.0609 25.5786 24.0783 24.8284 24.8284C24.0783 25.5786 23.0609 26 22 26H10C8.93913 26 7.92172 25.5786 7.17157 24.8284C6.42143 24.0783 6 23.0609 6 22V9C6 8.46957 6.21071 7.96086 6.58579 7.58579C6.96086 7.21071 7.46957 7 8 7Z" fill="currentColor" opacity="0.8"/>
  <circle cx="13" cy="16" r="1.5" fill="white"/>
  <circle cx="19" cy="16" r="1.5" fill="white"/>
  <path d="M10 13H22" stroke="white" stroke-width="1.5" stroke-linecap="round"/>
</svg>